<?xml version="1.0" encoding="UTF-8"?>
<svg id="Layer_1" data-name="Layer 1" xmlns="http://www.w3.org/2000/svg" viewBox="0 0 219.66 180.12">
  <defs>
    <style>
      .cls-1 {
        letter-spacing: .12em;
      }

      .cls-2, .cls-3, .cls-4, .cls-5, .cls-6, .cls-7, .cls-8, .cls-9, .cls-10, .cls-11, .cls-12, .cls-13, .cls-14, .cls-15 {
        stroke-linejoin: round;
      }

      .cls-2, .cls-4, .cls-5, .cls-6, .cls-7, .cls-8, .cls-9, .cls-10, .cls-11, .cls-12, .cls-14, .cls-15 {
        stroke: #000;
        stroke-linecap: round;
      }

      .cls-2, .cls-5, .cls-6, .cls-8, .cls-11, .cls-14 {
        stroke-width: .53px;
      }

      .cls-2, .cls-9 {
        fill: #8c564b;
      }

      .cls-3 {
        fill: none;
        stroke: #333;
        stroke-width: 1.16px;
      }

      .cls-16 {
        letter-spacing: 0em;
      }

      .cls-17 {
        font-size: 11.04px;
      }

      .cls-17, .cls-18, .cls-19 {
        font-family: ArialMT, Arial;
        isolation: isolate;
      }

      .cls-18 {
        font-size: 12px;
      }

      .cls-4, .cls-5 {
        fill: #2ca02c;
      }

      .cls-4, .cls-7, .cls-9, .cls-10, .cls-12, .cls-15 {
        stroke-width: .71px;
      }

      .cls-20 {
        letter-spacing: .08em;
      }

      .cls-6, .cls-12 {
        fill: #d62728;
      }

      .cls-21 {
        letter-spacing: .16em;
      }

      .cls-7, .cls-14 {
        fill: #ff7f0e;
      }

      .cls-22 {
        letter-spacing: .16em;
      }

      .cls-19 {
        fill: #4d4d4d;
        font-size: 9.6px;
      }

      .cls-23 {
        letter-spacing: .12em;
      }

      .cls-8, .cls-15 {
        fill: #1f77b4;
      }

      .cls-10, .cls-11 {
        fill: #e377c2;
      }

      .cls-13 {
        fill: #6f7378;
        fill-rule: evenodd;
        stroke: #abb0b8;
        stroke-width: .43px;
      }

      .cls-24 {
        letter-spacing: .07em;
      }
    </style>
  </defs>
  <g>
    <path class="cls-13" d="m155.6,95.28l-.06-1.12.41-.22.3-.75-.12-.74-.12-.59-.12-.97-.17-.67-.42-.59.06-.6-.06-.52-.06-.89-.12-.75-.18-.59v-1.04l.12-1.19-.24-.37-.24-.6v-.74l-.24-.6.24-.59.36-.15.6-.3.89-.15.72.23h.95l.72.29.18.9.47.22.66.07.65-.22.24-.74.36-.52.3-.97.06-8.18.06-2.01h2.26l2.99-.07h5.54l1.01.07,1.85-.07,1.97.07h3.46l2.68-.07h6.56l.72.07h1.31l2.92-.07.9.07h2.2l2.51-.07h3.1l.77.07h9.3l-.06,12.94-.06,13.61v4.91l-.05,10.33.05,7.44-.05,5.5v18.51h-1.85l-4.06.08-3.87-.08h-6.62l-3.7.08-1.37-.15-1.85-.74-.95-.37-2.51-.97-4.23-1.71-3.04-1.19-3.52-1.27-2.74-1.11-2.69-1.04-1.67-.67-1.25-.52-2.86-1.19-3.04-1.12-2.92-1.11-4-1.56-1.13-.45.12-.82.29-1.19.36-.82.48-.14.36.07h.65l.42-.3.3-.81.48-.67v-.75l-.06-.82-.6-.59-1.25-.15-.42-.37-.12-.67.24-1.71-.54-.59.24-.6-.12-.59.42-.38.42-.29.12-.38.29-.22-.11-.37.53-.22.12-.38.3-.74-.12-.82.18-.44-.18-.67v-1.86l.24-.52.65-.45-.17-.22.23-.3.3-.52.24-.44,1.01-.53.72-.59.42-.59.59-.23-.06-.44-.29-.52-1.26-1.12-.89-.59-.3-1.57-.18-.29-.3-1.27-1.31-1.26.24-.37.06-.15-.24-.23-.42-.29-.23-.97-.06-.74Z"/>
    <path class="cls-13" d="m99.72,4.56v29.97l.12,3.34-.12,1.64v3.27l.12.97,1.31,1.04,3.11,2.75,2.5,2.16,1.97,1.71,7.51,6.69,5.96,5.28,6.92,6.39,13.36,12.72,2.32,2.23,10.8,10.56.06.74.23.97.42.29.24.23-.06.15-.24.37,1.31,1.26.3,1.27.18.29.3,1.57.89.59,1.26,1.12.29.52.06.44-.59.23-.42.59-.72.59-1.01.53-.24.44-.3.52-.23.3.17.22-.65.45-.24.52v1.86l.18.67-.18.44.12.82-.3.74-.12.38-.53.22.11.37-.29.22-.12.38-.42.29-.42.38.12.59-.24.6.54.59-.24,1.71.12.67.42.37,1.25.15.6.59.06.82v.75l-.48.67-.3.81-.42.3h-.65l-.36-.07-.48.14-14.25,1.42-10.49,1.11v-1.04l-.12-.3-.36-.29-.06-.23.12-.07.54.59.17.15v-.29l-.11-.45-.3-.22-.24-.23-.12-.15h-.24l-.18.38-.12.07-.18-.15-.06-.52.24-.22.06-.22-.06-.15-.18-.15-.23-.22-.06-.38.23-.29.06-.52-.18-.97-.05-.52-.36-.97-.36-.59-.36-.82-.53-.67-.3-.59-.42-.38-.54-.44-.41-.37-.18-.38-.66-.37-.36-.3-.35-.29-.3-.45-.48-.59-.48-.45-.35-.15h-.24l-.42-.37-.78-.82-.53-.37-.24-.15-.12-.15-.48-.15-.36-.07-.35.22h-.3v.3l-.12.22h-.36l-.24-.15-.24-.07-.41-.15-.24-.22v-.3l.18-.3.06-.37-.24-.74-.54-.89-.12-.38-.3-.22-.53-.15-1.31-.15-.72.15-.48.08-.35-.08-1.26-.37-.18-.15-.47-.15-.36-.37h-.3l-.48.08-.59-.53-.42-.96-.3-.52-.12-.3-.95-.37-.66-.6-.47-.52-.54-.15-.48-.22-.47-.07-.9.29-.59-.14-.54-.08-.66.08-.47-.15-.66-.3-.48-.07h-.71l-.66-.08-1.55.08-1.31.07-.3-.15-.36-.52-.35-.52-.72-.22-.42-.15-.12-.6.36-.74v-.74l-.3-.52.06-.52.36-.53-.3-.44-.12-.22-.18-.3.12-.3v-.67l.18-.52.06-.97-.24-.52-.35-.22-.36-.07-.06.22h-.24l-.48-.45-.53-.29-.42-.67v-.38l.3-.44h.12l.17.15.12-.08-.29-.81-.3-.53-.06-.29h-.42l-.83-.08-.36-.44-.72-.9-.53-.74-.42-.22-.54-.45-.36-.3-.23-.52v-.52l-.36-.15-.3-.44-.42-.37-.36-.3-.35-.45-.24-.81-.3-.53-.42-.29-.36-.67-.53-.89-.48-.38-.3-.37-.36-.07-.53-.3-.48-.52-.36-.37v-.82l-.29-1.04-.06-.45-.36-.37v-.15l.24-.07-.12-.45-.12-.07.18-.52.24-.23.41.08.18.07.42-.37.24-.82.12-.74-.06-.82-.06-.15.06-.37-.36-.37-.36-.52-.54-.3-.23-.15-.18.23h-.3l-.18-.15-.42.15h-.24l-.71-.23-.6-.44-.53-.45-.24-.52-.24-.22-.36-.15-.12-.3-.18-.15-.18-.44-.35-.38-.18-.52.06-.67.12-.59-.06-.67-.24-.15-.18-.37v-.52l-.12-.22-.42-.15-.18-.45v-.82l.3-.22v-.22l-.12-.3.12-.37-.12-.22-.12-.6v-.3l.24-.07h.12l.36-.3.12.15h.59v.22l.06.3.18.37-.24.08-.17.15v.22l.11.3.18.22-.06.3-.06.29.36.15.6.15.36.22.23.3.42.22.42.15.24.23.12.07.18.22.18.15.41.15h.36l.24-.22h-.06v-.22l-.48-.15-.47-.3-.3-.22-.18-.6-.24-.74-.3-.67-.48-.45-.53-.37-.36-.37.06-.52-.06-.22v-.67l-.3-.23-.3-.15-.29-.07-.18-.37.12-.08.17-.29.12-.3v-.15h.78l.18-.3.3-.15h-.18l.83.08.3.07-.12-.22-.42-.15-.41-.22-.36-.23v-.37l-.36-.15-.24.15-.42-.22-.23-.22-.24-.08-.24.23-.06.29-.18.08-.3-.08h-.3l.18.23h.18l-.06.59-.12.3v.37l.12.07.3.15.12.08v.22l-.3.07-.06.23.06.22.12.22.24.23.18.15v.22l-.12.07-.24-.22-.18-.07-.12.07.12.3.06.3-.06.14-.3-.07-.18-.07-.29-.23-.18-.22-.48-.15-.24-.3-.18-.15h-.12l-.12.15-.11-.15-.48-.29-.42-.23-.24-.37-.53-.37-.48-.15-.06-.15-.06-.29-.36.22-.12.44-.12.15-.24.08-.17-.23.06-.44.29-.75.12-.37-.06-.59-.18-.45.24-.07.24.37.3.15.12-.15-.12-.52-.42-.45-.18-.37-.24-.15-.29-.22h-.36l-.24-.67-.36-.82-.53-.67-.72-.29-.66-.3-.53-.67-.36-.82-.54-.74-.47-.23-.24-.29-.18-.3-.42-.37-.36-.3-.18-.45-.59-.29-.48-.6-.3-.37.12-.45.24-.59.12-.45-.6-1.11-.59-1.49-.18-.89-.06-1.19.24-.82.3-.82-.06-.74.06-.6-.18-.44-.3-.67v-.74l-.54-.67-.47-.15-.12-.6-.36-.44-.3-.3-.24-.45-.3-.29-.18-.23-.29-.52-.06-.44-.48-.3-.3-.22-.48-.45-.53-.52-.54-.3-.48-.45-.06-.29.24-.67-.12-.6-.41-.44.06-.89.47-1.34.48-1.04.78-1.42.59-1.26.42-.97.24-.74-.36-.74-.3-.75.12-.37.12-.37.42.3.12-.3-.12-.89.36-.82.11-.82.06-.59v-.15l-.17-.6-.12-.22-.06-.3h.35l-.17-.45-.42-.52-.12-.74-.24-.52-.24-.52-.36-.22-.35-.37-.12-.53.12-.59.23-.6.12-.44.06-.37,3.52-.08h24.69l6.08-.15,9.18.15Z"/>
    <path class="cls-13" d="m161.8,69.62l-.06,2.01-.06,8.18-.3.97-.36.52-.24.74-.65.22-.66-.07-.47-.22-.18-.9-.72-.29h-.95l-.72-.23-.89.15-.6.3-.36.15-.24.59.24.6v.74l.24.6.24.37-.12,1.19v1.04l.18.59.12.75.06.89.06.52-.06.6.42.59.17.67.12.97.12.59.12.74-.3.75-.41.22.06,1.12-10.8-10.56-2.32-2.23-13.36-12.72-6.92-6.39-5.96-5.28-7.51-6.69-1.97-1.71-2.5-2.16-3.11-2.75-1.31-1.04-.12-.97v-3.27l.12-1.64-.12-3.34V4.56h59.33l2.69.08.06,12.93v11.38l.06,2.98-.06,4.68-.06,11.3v1.04l.06,5.8-.06,6.92.06,7.95Z"/>
    <circle class="cls-7" cx="97.44" cy="59.43" r="4.62"/>
    <circle class="cls-15" cx="212.81" cy="135.57" r="4.62"/>
    <path class="cls-9" d="m212.49,130.95v9.24c-2.55,0-4.62-2.07-4.62-4.62s2.07-4.62,4.62-4.62Z"/>
    <circle class="cls-4" cx="185.83" cy="94.13" r="4.62"/>
    <circle class="cls-10" cx="192.62" cy="130.08" r="4.62"/>
    <circle class="cls-12" cx="86.93" cy="26.67" r="4.62"/>
    <circle class="cls-6" cx="86.94" cy="26.71" r="4.62"/>
    <g>
      <polygon class="cls-14" points="106.16 67.34 211.27 67.34 211.18 67.34 211.53 67.33 211.87 67.26 212.19 67.13 212.5 66.96 212.76 66.74 213 66.48 213.18 66.19 213.32 65.87 213.4 65.53 213.43 65.18 213.43 65.18 213.43 54.26 213.43 54.26 213.4 53.91 213.32 53.58 213.18 53.26 213 52.96 212.76 52.7 212.5 52.48 212.19 52.31 211.87 52.19 211.53 52.12 211.27 52.1 106.16 52.1 106.42 52.12 106.08 52.1 105.73 52.14 105.4 52.24 105.08 52.39 104.8 52.59 104.55 52.83 104.34 53.11 104.18 53.41 104.07 53.74 104.01 54.09 104 54.26 104 65.18 104.01 65.01 104.01 65.36 104.07 65.7 104.18 66.03 104.34 66.34 104.55 66.62 104.8 66.86 105.08 67.05 105.4 67.2 105.73 67.3 106.08 67.34 106.16 67.34"/>
      <text class="cls-17" transform="translate(111.29 63.74)"><tspan x="0" y="0">Myotis californicus</tspan></text>
    </g>
    <polygon class="cls-8" points="81.57 135.09 174.11 135.09 174.02 135.08 174.37 135.07 174.71 135 175.03 134.88 175.33 134.7 175.6 134.48 175.83 134.22 176.02 133.93 176.16 133.61 176.24 133.27 176.27 132.93 176.27 132.93 176.27 122 176.27 122 176.24 121.66 176.16 121.32 176.02 121 175.83 120.71 175.6 120.45 175.33 120.23 175.03 120.05 174.71 119.93 174.37 119.86 174.11 119.84 81.57 119.84 81.83 119.86 81.48 119.84 81.14 119.89 80.81 119.98 80.49 120.13 80.21 120.33 79.96 120.57 79.75 120.85 79.58 121.16 79.47 121.49 79.42 121.83 79.41 122 79.41 132.93 79.42 132.75 79.42 133.1 79.47 133.44 79.58 133.77 79.75 134.08 79.96 134.36 80.21 134.6 80.49 134.8 80.81 134.95 81.14 135.04 81.48 135.08 81.57 135.09"/>
    <text class="cls-17" transform="translate(88.27 131.49)"><tspan x="0" y="0">Myotis auriculus</tspan></text>
    <polygon class="cls-2" points="81.57 152.61 159.73 152.61 159.65 152.6 159.99 152.59 160.33 152.52 160.66 152.4 160.96 152.22 161.23 152 161.46 151.74 161.65 151.45 161.78 151.13 161.86 150.79 161.89 150.45 161.89 150.45 161.89 139.52 161.89 139.52 161.86 139.18 161.78 138.84 161.65 138.52 161.46 138.23 161.23 137.97 160.96 137.75 160.66 137.57 160.33 137.45 159.99 137.38 159.73 137.36 81.57 137.36 81.83 137.38 81.48 137.36 81.14 137.41 80.8 137.5 80.49 137.65 80.2 137.85 79.95 138.09 79.74 138.37 79.58 138.68 79.47 139.01 79.42 139.35 79.41 139.52 79.41 150.45 79.42 150.27 79.42 150.62 79.47 150.96 79.58 151.29 79.74 151.6 79.95 151.88 80.2 152.12 80.49 152.32 80.8 152.47 81.14 152.56 81.48 152.6 81.57 152.61"/>
    <text class="cls-17" transform="translate(86.63 149.2)"><tspan x="0" y="0">Myotis volans</tspan></text>
    <polygon class="cls-5" points="81.57 100.68 169.88 100.68 169.8 100.68 170.14 100.66 170.48 100.6 170.81 100.47 171.11 100.3 171.38 100.08 171.61 99.82 171.8 99.52 171.93 99.2 172.01 98.87 172.04 98.52 172.04 98.52 172.04 87.6 172.04 87.6 172.01 87.25 171.93 86.91 171.8 86.59 171.61 86.3 171.38 86.04 171.11 85.82 170.81 85.65 170.48 85.52 170.14 85.45 169.88 85.44 81.57 85.44 81.83 85.45 81.48 85.44 81.14 85.48 80.8 85.58 80.49 85.73 80.2 85.92 79.95 86.17 79.74 86.44 79.58 86.75 79.47 87.08 79.41 87.42 79.41 87.6 79.41 98.52 79.41 98.35 79.41 98.69 79.47 99.04 79.58 99.37 79.74 99.67 79.95 99.95 80.2 100.19 80.49 100.39 80.8 100.54 81.14 100.64 81.48 100.68 81.57 100.68"/>
    <text class="cls-17" transform="translate(88 96.01)"><tspan x="0" y="0">Myotis occultus</tspan></text>
    <polygon class="cls-11" points="81.57 118.36 158.55 118.36 158.46 118.36 158.81 118.35 159.15 118.28 159.47 118.15 159.78 117.98 160.05 117.76 160.28 117.5 160.46 117.21 160.6 116.89 160.68 116.55 160.71 116.2 160.71 116.2 160.71 105.28 160.71 105.28 160.68 104.93 160.6 104.6 160.46 104.28 160.28 103.98 160.05 103.72 159.78 103.5 159.47 103.33 159.15 103.21 158.81 103.14 158.55 103.12 81.57 103.12 81.83 103.14 81.48 103.12 81.13 103.16 80.8 103.26 80.49 103.41 80.2 103.61 79.95 103.85 79.74 104.13 79.58 104.43 79.47 104.76 79.41 105.11 79.41 105.28 79.41 116.2 79.41 116.03 79.41 116.38 79.47 116.72 79.58 117.05 79.74 117.36 79.95 117.63 80.2 117.88 80.49 118.07 80.8 118.22 81.13 118.32 81.48 118.36 81.57 118.36"/>
    <text class="cls-17" transform="translate(87.86 114.77)"><tspan x="0" y="0">Myotis velifer</tspan></text>
    <g>
      <polygon class="cls-6" points="116.98 34.85 209.09 34.85 209.01 34.85 209.35 34.83 209.7 34.76 210.02 34.64 210.32 34.47 210.59 34.25 210.82 33.99 211.01 33.69 211.14 33.37 211.23 33.03 211.25 32.69 211.25 32.69 211.25 21.77 211.25 21.77 211.23 21.42 211.14 21.08 211.01 20.76 210.82 20.47 210.59 20.21 210.32 19.99 210.02 19.81 209.7 19.69 209.35 19.62 209.09 19.61 116.98 19.61 117.24 19.62 116.89 19.61 116.55 19.65 116.21 19.75 115.9 19.89 115.61 20.09 115.36 20.33 115.15 20.61 114.99 20.92 114.88 21.25 114.82 21.59 114.82 21.77 114.82 32.69 114.82 32.51 114.82 32.86 114.88 33.2 114.99 33.53 115.15 33.84 115.36 34.12 115.61 34.36 115.9 34.56 116.21 34.71 116.55 34.8 116.89 34.85 116.98 34.85"/>
      <text class="cls-17" transform="translate(121.18 30.17)"><tspan x="0" y="0">Myotis lucifugus</tspan></text>
    </g>
  </g>
  <g>
    <text class="cls-19" transform="translate(17.6 137.95)"><tspan class="cls-21" x="0" y="0">3</tspan><tspan x="6.86" y="0">2</tspan></text>
    <text class="cls-19" transform="translate(29.79 137.95)"><tspan x="0" y="0">°</tspan></text>
    <text class="cls-19" transform="translate(33.63 137.95)"><tspan x="0" y="0">N</tspan></text>
    <text class="cls-19" transform="translate(17.6 112)"><tspan class="cls-21" x="0" y="0">3</tspan><tspan x="6.86" y="0">4</tspan></text>
    <text class="cls-19" transform="translate(29.79 112)"><tspan x="0" y="0">°</tspan></text>
    <text class="cls-19" transform="translate(33.63 112)"><tspan x="0" y="0">N</tspan></text>
    <text class="cls-19" transform="translate(17.6 86.04)"><tspan class="cls-21" x="0" y="0">3</tspan><tspan x="6.86" y="0">6</tspan></text>
    <text class="cls-19" transform="translate(29.79 86.04)"><tspan x="0" y="0">°</tspan></text>
    <text class="cls-19" transform="translate(33.63 86.04)"><tspan x="0" y="0">N</tspan></text>
    <text class="cls-19" transform="translate(17.6 60.09)"><tspan class="cls-21" x="0" y="0">3</tspan><tspan x="6.86" y="0">8</tspan></text>
    <text class="cls-19" transform="translate(29.79 60.09)"><tspan x="0" y="0">°</tspan></text>
    <text class="cls-19" transform="translate(33.63 60.09)"><tspan x="0" y="0">N</tspan></text>
    <text class="cls-19" transform="translate(17.6 34.13)"><tspan class="cls-21" x="0" y="0">4</tspan><tspan x="6.86" y="0">0</tspan></text>
    <text class="cls-19" transform="translate(29.79 34.13)"><tspan x="0" y="0">°</tspan></text>
    <text class="cls-19" transform="translate(33.63 34.13)"><tspan x="0" y="0">N</tspan></text>
    <text class="cls-19" transform="translate(17.6 8.24)"><tspan class="cls-21" x="0" y="0">4</tspan><tspan x="6.86" y="0">2</tspan></text>
    <text class="cls-19" transform="translate(29.79 8.24)"><tspan x="0" y="0">°</tspan></text>
    <text class="cls-19" transform="translate(33.63 8.24)"><tspan x="0" y="0">N</tspan></text>
    <line class="cls-3" x1="43.19" y1="134.46" x2="46.18" y2="134.46"/>
    <line class="cls-3" x1="43.19" y1="108.5" x2="46.18" y2="108.5"/>
    <line class="cls-3" x1="43.19" y1="82.55" x2="46.18" y2="82.55"/>
    <line class="cls-3" x1="43.19" y1="56.59" x2="46.18" y2="56.59"/>
    <line class="cls-3" x1="43.19" y1="30.64" x2="46.18" y2="30.64"/>
    <line class="cls-3" x1="43.19" y1="4.68" x2="46.18" y2="4.68"/>
    <line class="cls-3" x1="47.75" y1="152.85" x2="47.75" y2="149.87"/>
    <line class="cls-3" x1="99.79" y1="152.85" x2="99.79" y2="149.87"/>
    <line class="cls-3" x1="151.82" y1="152.85" x2="151.82" y2="149.87"/>
    <line class="cls-3" x1="203.86" y1="152.85" x2="203.86" y2="149.87"/>
    <text class="cls-19" transform="translate(31.94 162.37)"><tspan class="cls-1" x="0" y="0">12</tspan><tspan x="12.96" y="0">5</tspan></text>
    <text class="cls-19" transform="translate(50.24 162.37)"><tspan x="0" y="0">°</tspan></text>
    <text class="cls-19" transform="translate(54.07 162.37)"><tspan x="0" y="0">W</tspan></text>
    <text class="cls-19" transform="translate(83.98 162.37)"><tspan class="cls-23" x="0" y="0">12</tspan><tspan class="cls-16" x="12.96" y="0">0</tspan></text>
    <text class="cls-19" transform="translate(102.27 162.37)"><tspan x="0" y="0">°</tspan></text>
    <text class="cls-19" transform="translate(106.11 162.37)"><tspan x="0" y="0">W</tspan></text>
    <text class="cls-19" transform="translate(136.01 162.24)"><tspan class="cls-20" x="0" y="0">1</tspan><tspan class="cls-22" x="6.12" y="0">1</tspan><tspan x="12.96" y="0">5</tspan></text>
    <text class="cls-19" transform="translate(154.31 162.24)"><tspan x="0" y="0">°</tspan></text>
    <text class="cls-19" transform="translate(158.15 162.24)"><tspan x="0" y="0">W</tspan></text>
    <text class="cls-19" transform="translate(188.05 162.37)"><tspan class="cls-20" x="0" y="0">1</tspan><tspan class="cls-22" x="6.12" y="0">1</tspan><tspan x="12.96" y="0">0</tspan></text>
    <text class="cls-19" transform="translate(206.35 162.37)"><tspan x="0" y="0">°</tspan></text>
    <text class="cls-19" transform="translate(210.18 162.37)"><tspan x="0" y="0">W</tspan></text>
    <text class="cls-18" transform="translate(107.65 176.23)"><tspan class="cls-24" x="0" y="0">Longitud</tspan><tspan x="53.04" y="0">e</tspan></text>
    <text class="cls-18" transform="translate(10.3 96.7) rotate(-90)"><tspan x="0" y="0">Lattitude</tspan></text>
  </g>
</svg>